# xmcd
#
# Track frame offsets:
#	225
#	15525
#	30976
#	50103
#	69081
#	87823
#	106350
#	124051
#	147002
#	168904
#	187656
#	203712
#	230833
#	250653
#	269554
#	286131
#
# Disc length: 4041 seconds
#
# Revision: 0
# Processed by: cddbd v1.5.2PL0 Copyright (c) Steve Scherf et al.
# Submitted via: EasyCDDAExtractor 11.5.3.1
#
DISCID=d20fc610
DTITLE=Various Artist - Sweet Hurt
DYEAR=2007
DGENRE=Pop
TTITLE0=Calories Blah Blah - อยากรู้...แต่ไม่อยากถาม
TTITLE1=อ๊อฟ ปองศักดิ์ - ของที่เธอไม่รัก
TTITLE2=เจนนิเฟอร์ คิ้ม - แบ่งเธอ แบ่งใจ
TTITLE3=นิว and จิ้ว - คนเจ้าน้ำตา
TTITLE4=Calories Blah Blah - คนที่ไม่เข้าตา
TTITLE5=อ๊อฟ ปองศักดิ์ - คำถามที่ต้องตอบ
TTITLE6=โรส ศิรินทิพย์ - ก้อนหินก้อนนั้น
TTITLE7=เจนนิเฟอร์ คิ้ม - ไม่ยอมหมดหวัง
TTITLE8=อ๊อฟ ปองศักดิ์ - ตะวันยังมีให้เห็น
TTITLE9=โรส ศิรินทิพย์ - ดอกไม้ในมือ
TTITLE10=นิว and จิ้ว - ทำไม
TTITLE11=เจนนิเฟอร์ คิ้ม - คิดถึงเธอทุกทีที่อยู่คนเดียว
TTITLE12=โรส ศิรินทิพย์ - เกิดมาแค่รักกัน
TTITLE13=Calories Blah Blah - ยืนยัน
TTITLE14=จิ๋ว The Star - ทำไมต้องเธอ
TTITLE15=อ๊อฟ ปองศักดิ์ - อย่าใกล้กันเลย
EXTD=
EXTT0=
EXTT1=
EXTT2=
EXTT3=
EXTT4=
EXTT5=
EXTT6=
EXTT7=
EXTT8=
EXTT9=
EXTT10=
EXTT11=
EXTT12=
EXTT13=
EXTT14=
EXTT15=
PLAYORDER=
